<?xml version="1.0" encoding="utf-8"?>
<!DOCTYPE svg PUBLIC "-//W3C//DTD SVG 1.1//EN" "http://www.w3.org/Graphics/SVG/1.1/DTD/svg11.dtd">
<svg version="1.1" id="Layer_1" xmlns="http://www.w3.org/2000/svg" xmlns:xlink="http://www.w3.org/1999/xlink" x="0px" y="0px"
	 width="40.492px" height="39.117px" viewBox="929.685 9.531 40.492 39.117" enable-background="new 929.685 9.531 40.492 39.117"
	 xml:space="preserve">
<filter id="black-glow">
		<feColorMatrix  type="matrix" values="0 0 0 0 0 0 0 0 0 0 0 0 0 0 0 0 0 0 0.5 0">
		</feColorMatrix>
	<feMerge>
		<feMergeNode  in="coloredBlur"></feMergeNode>
		<feMergeNode  in="SourceGraphic"></feMergeNode>
	</feMerge>
</filter>
<g>
	<g>
		<g filter="url(#black-glow)">
			<path fill="#358BD2" d="M948.218,26.924c0,1.459-1.184,2.641-2.641,2.641c-1.458,0-2.639-1.182-2.639-2.641
				c0-1.453,1.181-2.64,2.639-2.64C947.034,24.283,948.218,25.471,948.218,26.924z"/>
		</g>
		<g filter="url(#black-glow)">
			<path fill="#358BD2" d="M951.632,26.924c0,1.461,1.182,2.641,2.641,2.641c1.457,0,2.641-1.18,2.641-2.641
				c0-1.455-1.184-2.64-2.641-2.64C952.813,24.283,951.632,25.469,951.632,26.924z"/>
		</g>
		<path fill="#358BD2" d="M969.604,29.788c-0.191,0.015-0.38,0.022-0.583,0.022c-1.179,0-2.32-0.276-3.352-0.781
			c0.342-1.97,0.489-3.952,0.451-5.929c-1.118-1.618-2.395-3.144-3.838-4.548c0.626-1.173,1.552-2.182,2.705-2.896l0.496-0.308
			l-0.388-0.438c-1.989-2.239-4.363-3.971-7.057-5.147l-0.537-0.233l-0.137,0.566c-0.321,1.323-0.991,2.516-1.913,3.474
			c-1.771-0.94-3.621-1.701-5.529-2.277c-1.903,0.574-3.751,1.333-5.521,2.273c-0.919-0.956-1.586-2.147-1.905-3.466l-0.139-0.568
			l-0.535,0.232c-2.658,1.158-5.1,2.938-7.057,5.145l-0.387,0.438l0.495,0.307c1.151,0.712,2.072,1.715,2.698,2.881
			c-1.438,1.4-2.715,2.92-3.831,4.53c-0.043,1.975,0.096,3.972,0.439,5.969c-1.026,0.5-2.161,0.773-3.331,0.773
			c-0.205,0-0.398-0.007-0.585-0.022l-0.582-0.045l0.054,0.581c0.287,2.938,1.197,5.733,2.715,8.308l0.295,0.502l0.443-0.377
			c1.03-0.873,2.273-1.451,3.598-1.684c0.872,1.781,1.904,3.457,3.078,5.014c1.87,0.654,3.819,1.143,5.833,1.434
			c0.193,1.33,0.039,2.707-0.485,3.98l-0.223,0.539l0.57,0.126c1.457,0.321,2.928,0.483,4.37,0.483l4.369-0.483l0.569-0.126
			L954.65,47.5c-0.524-1.273-0.68-2.652-0.483-3.984c2.003-0.291,3.944-0.779,5.81-1.43c1.174-1.557,2.208-3.234,3.08-5.019
			c1.328,0.231,2.58,0.81,3.615,1.686l0.443,0.376l0.296-0.499c1.519-2.579,2.431-5.374,2.711-8.307l0.055-0.581L969.604,29.788z
			 M956.178,36.889c-2.068,0.561-4.166,0.844-6.253,0.844c-2.094,0-4.189-0.283-6.258-0.844c-1.136-1.764-2.033-3.652-2.678-5.642
			c-0.644-1.981-1.021-4.054-1.13-6.19c1.337-1.652,2.855-3.1,4.535-4.316c1.705-1.24,3.561-2.249,5.53-3.008
			c1.966,0.759,3.818,1.765,5.52,3c1.685,1.225,3.211,2.683,4.554,4.347c-0.115,2.122-0.497,4.185-1.14,6.162
			C958.214,33.23,957.312,35.125,956.178,36.889z"/>
	</g>
</g>
</svg>
